<svg width="1753" height="697" xmlns="http://www.w3.org/2000/svg" xmlns:xlink="http://www.w3.org/1999/xlink" xml:space="preserve" overflow="hidden"><defs><filter id="fx0" x="-10%" y="-10%" width="120%" height="120%" filterUnits="userSpaceOnUse" primitiveUnits="userSpaceOnUse"><feComponentTransfer color-interpolation-filters="sRGB"><feFuncR type="discrete" tableValues="0 0"/><feFuncG type="discrete" tableValues="0 0"/><feFuncB type="discrete" tableValues="0 0"/><feFuncA type="linear" slope="0.34902" intercept="0"/></feComponentTransfer><feGaussianBlur stdDeviation="4.8119 4.8119"/></filter><clipPath id="clip1"><rect x="714" y="243" width="1753" height="697"/></clipPath><clipPath id="clip2"><path d="M817.168 290.5C769.303 290.5 730.5 329.303 730.5 377.168L730.5 723.832C730.5 771.697 769.303 810.5 817.168 810.5L2243.83 810.5C2291.7 810.5 2330.5 771.697 2330.5 723.832L2330.5 377.168C2330.5 329.303 2291.7 290.5 2243.83 290.5ZM714 243 2467 243 2467 940 714 940Z" fill-rule="evenodd" clip-rule="evenodd"/></clipPath><clipPath id="clip3"><rect x="-5" y="-5" width="1644" height="566"/></clipPath><clipPath id="clip4"><rect x="0" y="0" width="1635" height="556"/></clipPath></defs><g clip-path="url(#clip1)" transform="translate(-714 -243)"><g clip-path="url(#clip2)"><g clip-path="url(#clip3)" filter="url(#fx0)" transform="translate(713 281)"><g clip-path="url(#clip4)"><path d="M17.4999 104.469C17.4999 56.6033 56.3027 17.8005 104.168 17.8005L1530.83 17.8005C1578.7 17.8005 1617.5 56.6033 1617.5 104.469L1617.5 451.132C1617.5 498.998 1578.7 537.801 1530.83 537.801L104.168 537.801C56.3027 537.801 17.4999 498.998 17.4999 451.132Z" stroke="#4A7EBB" stroke-width="3" stroke-linejoin="round" stroke-miterlimit="10" fill="#1F497D" fill-rule="evenodd"/></g></g></g><path d="M730.5 377.168C730.5 329.303 769.303 290.5 817.168 290.5L2243.83 290.5C2291.7 290.5 2330.5 329.303 2330.5 377.168L2330.5 723.832C2330.5 771.697 2291.7 810.5 2243.83 810.5L817.168 810.5C769.303 810.5 730.5 771.697 730.5 723.832Z" stroke="#4A7EBB" stroke-width="3.4375" stroke-linejoin="round" stroke-miterlimit="10" fill="#1F497D" fill-rule="evenodd"/><path d="M970 671C878.873 671 805 614.812 805 545.5 805 476.188 878.873 420 970 420 878.873 471.984 860.405 570.313 928.75 639.625 940.476 651.517 954.365 662.081 970 671Z" fill="#FFFFFF" fill-rule="evenodd"/><path d="M2081 538.5 2024.91 559.237 2024.91 517.763ZM2040.28 436.32 2014.73 492.221 1986.52 462.895ZM1942 394 1961.95 452.312 1922.05 452.312ZM1843.71 436.32 1897.48 462.895 1869.27 492.221ZM1803 538.5 1859.09 517.763 1859.09 559.237ZM1843.71 640.667 1869.27 584.779 1897.48 614.105ZM1942 683 1922.05 624.688 1961.95 624.688ZM2040.28 640.667 1986.52 614.105 2014.73 584.779ZM1872.5 538.5C1872.5 498.597 1903.62 466.25 1942 466.25 1980.38 466.25 2011.5 498.597 2011.5 538.5 2011.5 578.403 1980.38 610.75 1942 610.75 1903.62 610.75 1872.5 578.403 1872.5 538.5Z" fill="#FFFFFF" fill-rule="evenodd"/><text fill="#FFFFFF" font-family="Bahnschrift SemiLight,Bahnschrift SemiLight_MSFontService,sans-serif" font-weight="300" font-size="330" transform="matrix(1 0 0 1 974.622 671)">A</text><text fill="#FFFFFF" font-family="Bahnschrift SemiLight,Bahnschrift SemiLight_MSFontService,sans-serif" font-weight="300" font-size="330" transform="matrix(1 0 0 1 1166.27 671)">L</text><text fill="#FFFFFF" font-family="Bahnschrift SemiLight,Bahnschrift SemiLight_MSFontService,sans-serif" font-weight="300" font-size="330" transform="matrix(1 0 0 1 1338.62 672)">I</text><text fill="#FFFFFF" font-family="Bahnschrift SemiLight,Bahnschrift SemiLight_MSFontService,sans-serif" font-weight="300" font-size="330" transform="matrix(1 0 0 1 1395.76 674)">P</text><text fill="#FFFFFF" font-family="Bahnschrift SemiLight,Bahnschrift SemiLight_MSFontService,sans-serif" font-weight="300" font-size="330" transform="matrix(1 0 0 1 1576.41 674)">N</text><text fill="#FFFFFF" font-family="Bahnschrift SemiLight,Bahnschrift SemiLight_MSFontService,sans-serif" font-weight="300" font-size="330" transform="matrix(1 0 0 1 2065.18 674)">S</text></g></svg>